<mxfile host="app.diagrams.net" agent="Mozilla/5.0 (Windows NT 10.0; Win64; x64) AppleWebKit/537.36 (KHTML, like Gecko) Chrome/134.0.0.0 Safari/537.36" version="26.1.1">
  <diagram name="Page-1" id="pxfOnz8e41jEZj2EO7r4">
    <mxGraphModel dx="1290" dy="522" grid="1" gridSize="10" guides="1" tooltips="1" connect="1" arrows="1" fold="1" page="1" pageScale="1" pageWidth="850" pageHeight="1100" math="0" shadow="0">
      <root>
        <mxCell id="0" />
        <mxCell id="1" parent="0" />
        <mxCell id="75qF3hbvprkDRyJPkcIT-1" value="" style="ellipse;whiteSpace=wrap;html=1;aspect=fixed;" vertex="1" parent="1">
          <mxGeometry x="10" y="397.5" width="80" height="80" as="geometry" />
        </mxCell>
        <mxCell id="75qF3hbvprkDRyJPkcIT-2" value="Listed" style="text;html=1;align=center;verticalAlign=middle;whiteSpace=wrap;rounded=0;" vertex="1" parent="1">
          <mxGeometry x="20" y="422.5" width="60" height="30" as="geometry" />
        </mxCell>
        <mxCell id="75qF3hbvprkDRyJPkcIT-3" value="" style="rounded=1;whiteSpace=wrap;html=1;" vertex="1" parent="1">
          <mxGeometry x="90" y="245" width="120" height="60" as="geometry" />
        </mxCell>
        <mxCell id="75qF3hbvprkDRyJPkcIT-4" value="Bidding in Progress" style="text;html=1;align=center;verticalAlign=middle;whiteSpace=wrap;rounded=0;" vertex="1" parent="1">
          <mxGeometry x="120" y="260" width="60" height="30" as="geometry" />
        </mxCell>
        <mxCell id="75qF3hbvprkDRyJPkcIT-5" value="" style="rounded=1;whiteSpace=wrap;html=1;" vertex="1" parent="1">
          <mxGeometry x="350" y="220" width="120" height="60" as="geometry" />
        </mxCell>
        <mxCell id="75qF3hbvprkDRyJPkcIT-6" value="Bid Closed" style="text;html=1;align=center;verticalAlign=middle;whiteSpace=wrap;rounded=0;" vertex="1" parent="1">
          <mxGeometry x="380" y="235" width="60" height="30" as="geometry" />
        </mxCell>
        <mxCell id="75qF3hbvprkDRyJPkcIT-7" value="" style="rounded=1;whiteSpace=wrap;html=1;" vertex="1" parent="1">
          <mxGeometry x="570" y="245" width="120" height="60" as="geometry" />
        </mxCell>
        <mxCell id="75qF3hbvprkDRyJPkcIT-8" value="Payment Pending" style="text;html=1;align=center;verticalAlign=middle;whiteSpace=wrap;rounded=0;" vertex="1" parent="1">
          <mxGeometry x="600" y="260" width="60" height="30" as="geometry" />
        </mxCell>
        <mxCell id="75qF3hbvprkDRyJPkcIT-9" value="" style="rounded=1;whiteSpace=wrap;html=1;" vertex="1" parent="1">
          <mxGeometry x="710" y="420" width="120" height="60" as="geometry" />
        </mxCell>
        <mxCell id="75qF3hbvprkDRyJPkcIT-10" value="Payment Completed" style="text;html=1;align=center;verticalAlign=middle;whiteSpace=wrap;rounded=0;" vertex="1" parent="1">
          <mxGeometry x="740" y="435" width="60" height="30" as="geometry" />
        </mxCell>
        <mxCell id="75qF3hbvprkDRyJPkcIT-17" value="&lt;b&gt;&lt;font style=&quot;font-size: 18px;&quot;&gt;State chart diagram&lt;/font&gt;&lt;/b&gt;" style="text;html=1;align=center;verticalAlign=middle;whiteSpace=wrap;rounded=0;" vertex="1" parent="1">
          <mxGeometry x="300" y="110" width="200" height="40" as="geometry" />
        </mxCell>
        <mxCell id="75qF3hbvprkDRyJPkcIT-18" value="" style="rounded=1;whiteSpace=wrap;html=1;" vertex="1" parent="1">
          <mxGeometry x="480" y="570" width="120" height="60" as="geometry" />
        </mxCell>
        <mxCell id="75qF3hbvprkDRyJPkcIT-19" value="Payment Failed" style="text;html=1;align=center;verticalAlign=middle;whiteSpace=wrap;rounded=0;" vertex="1" parent="1">
          <mxGeometry x="510" y="585" width="60" height="30" as="geometry" />
        </mxCell>
        <mxCell id="75qF3hbvprkDRyJPkcIT-20" value="" style="rounded=1;whiteSpace=wrap;html=1;" vertex="1" parent="1">
          <mxGeometry x="190" y="570" width="120" height="60" as="geometry" />
        </mxCell>
        <mxCell id="75qF3hbvprkDRyJPkcIT-21" value="Item Relisted" style="text;html=1;align=center;verticalAlign=middle;whiteSpace=wrap;rounded=0;" vertex="1" parent="1">
          <mxGeometry x="220" y="585" width="60" height="30" as="geometry" />
        </mxCell>
        <mxCell id="75qF3hbvprkDRyJPkcIT-25" value="" style="endArrow=classic;html=1;rounded=0;exitX=1;exitY=0.5;exitDx=0;exitDy=0;entryX=0;entryY=0.5;entryDx=0;entryDy=0;" edge="1" parent="1" source="75qF3hbvprkDRyJPkcIT-3" target="75qF3hbvprkDRyJPkcIT-5">
          <mxGeometry relative="1" as="geometry">
            <mxPoint x="400" y="460" as="sourcePoint" />
            <mxPoint x="500" y="460" as="targetPoint" />
          </mxGeometry>
        </mxCell>
        <mxCell id="75qF3hbvprkDRyJPkcIT-26" value="Time Out" style="edgeLabel;resizable=0;html=1;;align=center;verticalAlign=middle;" connectable="0" vertex="1" parent="75qF3hbvprkDRyJPkcIT-25">
          <mxGeometry relative="1" as="geometry" />
        </mxCell>
        <mxCell id="75qF3hbvprkDRyJPkcIT-27" value="" style="endArrow=classic;html=1;rounded=0;exitX=1;exitY=0.5;exitDx=0;exitDy=0;entryX=0;entryY=0.5;entryDx=0;entryDy=0;" edge="1" parent="1" source="75qF3hbvprkDRyJPkcIT-5" target="75qF3hbvprkDRyJPkcIT-7">
          <mxGeometry relative="1" as="geometry">
            <mxPoint x="400" y="360" as="sourcePoint" />
            <mxPoint x="500" y="360" as="targetPoint" />
          </mxGeometry>
        </mxCell>
        <mxCell id="75qF3hbvprkDRyJPkcIT-28" value="Winner notified" style="edgeLabel;resizable=0;html=1;;align=center;verticalAlign=middle;" connectable="0" vertex="1" parent="75qF3hbvprkDRyJPkcIT-27">
          <mxGeometry relative="1" as="geometry" />
        </mxCell>
        <mxCell id="75qF3hbvprkDRyJPkcIT-29" value="" style="endArrow=classic;html=1;rounded=0;exitX=1;exitY=0.5;exitDx=0;exitDy=0;entryX=0;entryY=0.5;entryDx=0;entryDy=0;" edge="1" parent="1" source="75qF3hbvprkDRyJPkcIT-7" target="75qF3hbvprkDRyJPkcIT-9">
          <mxGeometry relative="1" as="geometry">
            <mxPoint x="400" y="360" as="sourcePoint" />
            <mxPoint x="500" y="360" as="targetPoint" />
          </mxGeometry>
        </mxCell>
        <mxCell id="75qF3hbvprkDRyJPkcIT-30" value="Payment Successful" style="edgeLabel;resizable=0;html=1;;align=center;verticalAlign=middle;" connectable="0" vertex="1" parent="75qF3hbvprkDRyJPkcIT-29">
          <mxGeometry relative="1" as="geometry" />
        </mxCell>
        <mxCell id="75qF3hbvprkDRyJPkcIT-33" value="" style="endArrow=classic;html=1;rounded=0;exitX=1;exitY=0;exitDx=0;exitDy=0;entryX=0.25;entryY=1;entryDx=0;entryDy=0;" edge="1" parent="1" source="75qF3hbvprkDRyJPkcIT-1" target="75qF3hbvprkDRyJPkcIT-3">
          <mxGeometry relative="1" as="geometry">
            <mxPoint x="400" y="460" as="sourcePoint" />
            <mxPoint x="500" y="460" as="targetPoint" />
          </mxGeometry>
        </mxCell>
        <mxCell id="75qF3hbvprkDRyJPkcIT-34" value="Bidding Started" style="edgeLabel;resizable=0;html=1;;align=center;verticalAlign=middle;" connectable="0" vertex="1" parent="75qF3hbvprkDRyJPkcIT-33">
          <mxGeometry relative="1" as="geometry" />
        </mxCell>
        <mxCell id="75qF3hbvprkDRyJPkcIT-35" value="" style="endArrow=classic;html=1;rounded=0;entryX=0.5;entryY=0;entryDx=0;entryDy=0;exitX=0.5;exitY=1;exitDx=0;exitDy=0;" edge="1" parent="1" source="75qF3hbvprkDRyJPkcIT-7" target="75qF3hbvprkDRyJPkcIT-18">
          <mxGeometry relative="1" as="geometry">
            <mxPoint x="280" y="430" as="sourcePoint" />
            <mxPoint x="500" y="420" as="targetPoint" />
          </mxGeometry>
        </mxCell>
        <mxCell id="75qF3hbvprkDRyJPkcIT-36" value="Failed Attempt" style="edgeLabel;resizable=0;html=1;;align=center;verticalAlign=middle;" connectable="0" vertex="1" parent="75qF3hbvprkDRyJPkcIT-35">
          <mxGeometry relative="1" as="geometry" />
        </mxCell>
        <mxCell id="75qF3hbvprkDRyJPkcIT-37" value="" style="endArrow=classic;html=1;rounded=0;exitX=0;exitY=0.5;exitDx=0;exitDy=0;entryX=1;entryY=0.5;entryDx=0;entryDy=0;" edge="1" parent="1" source="75qF3hbvprkDRyJPkcIT-18" target="75qF3hbvprkDRyJPkcIT-20">
          <mxGeometry relative="1" as="geometry">
            <mxPoint x="275" y="480" as="sourcePoint" />
            <mxPoint x="535" y="470" as="targetPoint" />
          </mxGeometry>
        </mxCell>
        <mxCell id="75qF3hbvprkDRyJPkcIT-38" value="Non-payment items" style="edgeLabel;resizable=0;html=1;;align=center;verticalAlign=middle;" connectable="0" vertex="1" parent="75qF3hbvprkDRyJPkcIT-37">
          <mxGeometry relative="1" as="geometry" />
        </mxCell>
        <mxCell id="75qF3hbvprkDRyJPkcIT-42" value="" style="endArrow=classic;html=1;rounded=0;exitX=0.5;exitY=0;exitDx=0;exitDy=0;entryX=0.5;entryY=1;entryDx=0;entryDy=0;" edge="1" parent="1" source="75qF3hbvprkDRyJPkcIT-20" target="75qF3hbvprkDRyJPkcIT-3">
          <mxGeometry relative="1" as="geometry">
            <mxPoint x="400" y="420" as="sourcePoint" />
            <mxPoint x="500" y="420" as="targetPoint" />
          </mxGeometry>
        </mxCell>
        <mxCell id="75qF3hbvprkDRyJPkcIT-43" value="Relisting" style="edgeLabel;resizable=0;html=1;;align=center;verticalAlign=middle;" connectable="0" vertex="1" parent="75qF3hbvprkDRyJPkcIT-42">
          <mxGeometry relative="1" as="geometry" />
        </mxCell>
      </root>
    </mxGraphModel>
  </diagram>
</mxfile>
